<svg width="33" height="32" viewBox="0 0 33 32" fill="none" xmlns="http://www.w3.org/2000/svg">
<path d="M14.0947 12.4947C14.1323 12.465 14.1716 12.4384 14.2105 12.4104C14.3096 12.339 14.4131 12.2745 14.5207 12.2172C14.5629 12.1941 14.6038 12.1711 14.6472 12.1508C15.6515 11.663 16.8506 11.8274 17.6867 12.5671C17.7308 12.6056 17.7668 12.6492 17.8085 12.6898C17.8925 12.7708 17.9716 12.8567 18.0451 12.9473C18.0868 12.9994 18.1217 13.0557 18.1576 13.1108C18.2175 13.1976 18.2726 13.2876 18.3223 13.3806C18.3544 13.4413 18.3824 13.5031 18.4099 13.5662C18.451 13.6603 18.4867 13.7569 18.5172 13.8549C18.5375 13.9208 18.5567 13.9856 18.5735 14.0523C18.5965 14.1546 18.6138 14.2578 18.6253 14.3621C18.633 14.4272 18.6426 14.4914 18.6459 14.557C18.65 14.6715 18.647 14.7859 18.6371 14.9001C18.633 14.9561 18.6336 15.0124 18.6264 15.0686C18.6036 15.2328 18.5658 15.3947 18.5139 15.552C18.5139 15.5605 18.5112 15.5684 18.5084 15.5767L20.0177 16.4481L22.8282 11.5758L7.2539 2.58203L4.44336 7.45382L13.7417 12.8213C13.8496 12.7024 13.9679 12.5932 14.0947 12.4947V12.4947Z" fill="#E74040"/>
<path d="M1.6543 7.78827L6.15116 0L7.12414 0.561834L2.62728 8.3501L1.6543 7.78827Z" fill="#E74040"/>
<path d="M26.9883 17.872L27.5507 16.8979L31.4448 19.1464L30.8824 20.1205L26.9883 17.872Z" fill="#E74040"/>
<path d="M21.5586 16.0343L23.2449 13.1143L27.139 15.363L25.4527 18.283L21.5586 16.0343Z" fill="#E74040"/>
<path d="M17.3172 15.9586C17.2914 15.9112 17.2587 15.8678 17.22 15.8299C17.3087 15.738 17.3864 15.6359 17.4511 15.5258C17.9152 14.7189 17.6411 13.6888 16.8371 13.2195C16.7216 13.1547 16.5986 13.1039 16.4713 13.0677C16.4337 13.0564 16.395 13.0496 16.359 13.0411C16.2665 13.021 16.1724 13.0087 16.078 13.004C16.0373 13.004 15.9975 12.9991 15.9569 13.0002C15.8227 13.0032 15.6893 13.0221 15.5595 13.0564C14.9867 13.2071 14.5357 13.6493 14.3741 14.2193C14.2124 14.7894 14.3639 15.4023 14.7726 15.8316C14.7342 15.8689 14.7018 15.9117 14.676 15.9586L7.05926 31.1803C6.92066 31.4583 7.03346 31.7959 7.31122 31.9348C7.58899 32.0734 7.92685 31.9609 8.06546 31.6828L15.4319 16.9445V31.4317C15.4319 31.7421 15.6836 31.9938 15.994 31.9938C16.3044 31.9938 16.5561 31.7421 16.5561 31.4317V16.9489L23.9198 31.6828C24.0586 31.9609 24.3962 32.0734 24.6743 31.9348C24.952 31.7959 25.0648 31.4583 24.926 31.1803L17.3172 15.9586Z" fill="#E74040"/>
</svg>
